<!DOCTYPE svg PUBLIC "-//W3C//DTD SVG 1.1//EN" "http://www.w3.org/Graphics/SVG/1.1/DTD/svg11.dtd">

<!-- Uploaded to: SVG Repo, www.svgrepo.com, Transformed by: SVG Repo Mixer Tools -->
<svg width="80px" height="80px" viewBox="0 0 1024 1024" class="icon" version="1.1" xmlns="http://www.w3.org/2000/svg" fill="none">

<!-- <g id="SVGRepo_bgCarrier" stroke-width="0"/> -->

<g id="SVGRepo_tracerCarrier" stroke-linecap="round" stroke-linejoin="round"/>

<g id="SVGRepo_iconCarrier">

<path d="M594.7 800.4H272.4c-10.7 0-19.4 8.7-19.4 19.4s8.7 19.4 19.4 19.4h322.3c10.7 0 19.4-8.7 19.4-19.4 0-10.8-8.7-19.4-19.4-19.4z" />





<path d="M274 335.6h-9.7c-67.8 0-123 55.2-123 123s55.2 123 123 123 123-55.2 123-123v-9.7H274V335.6z m93.4 132.8c-4.9 52.6-49.3 93.9-103.1 93.9-57.1 0-103.6-46.5-103.6-103.6 0-53.8 41.3-98.2 93.9-103.1v112.8h112.8z" />

<path d="M297.2 325.2v94.7h94.7c0-52.3-42.4-94.7-94.7-94.7z" />


<path d="M912.9 732.5c-47 0-86.3 33.5-95.3 77.8H701.9c-11.7 0-20.2-2.3-23.2-6.3-2-2.7-2-7-2-9v-51.1h109.9c37.5 0 67.9-30.5 67.9-67.9V235.2c0-37.5-30.5-67.9-67.9-67.9h-706c-37.5 0-67.9 30.5-67.9 67.9v440.7c0 37.5 30.5 67.9 67.9 67.9h557.2V795c0 4.8 0 19.3 9.9 32.4 10.9 14.4 29.1 21.7 54.2 21.7h308.2v-19.4c0-53.6-43.6-97.2-97.2-97.2zM80.6 705.1c-16.1 0-29.1-13.1-29.1-29.1V235.2c0-16.1 13.1-29.1 29.1-29.1h705.9c16.1 0 29.1 13.1 29.1 29.1v440.7c0 16.1-13.1 29.1-29.1 29.1H80.6z m832.3 105.2h-55.1c8-22.7 29.7-39 55.1-39s47.1 16.3 55.1 39h-55.1z" />

<path d="M670.8 329.4H461.2c-5.4 0-9.7 4.3-9.7 9.7s4.3 9.7 9.7 9.7h209.7c5.4 0 9.7-4.3 9.7-9.7s-4.4-9.7-9.8-9.7z" />

<path d="M670.8 402.7H461.2c-5.4 0-9.7 4.3-9.7 9.7s4.3 9.7 9.7 9.7h209.7c5.4 0 9.7-4.3 9.7-9.7s-4.4-9.7-9.8-9.7zM670.8 476.1H525.2c-5.4 0-9.7 4.3-9.7 9.7s4.3 9.7 9.7 9.7h145.6c5.4 0 9.7-4.3 9.7-9.7s-4.3-9.7-9.7-9.7z" />

<path d="M670.8 549.4H530.1c-5.4 0-9.7 4.3-9.7 9.7 0 5.4 4.3 9.7 9.7 9.7h140.7c5.4 0 9.7-4.3 9.7-9.7 0-5.4-4.3-9.7-9.7-9.7z" />

</g>

</svg>